<svg width="50" height="50" viewBox="0 0 50 50" fill="none" xmlns="http://www.w3.org/2000/svg">
<rect width="50" height="50" rx="25" fill="#40DDB6"/>
<path d="M30.5165 14.3754C31.9783 14.3796 33.3791 14.9407 34.4127 15.9361C35.4464 16.9315 36.0291 18.2803 36.0334 19.688V30.3121C36.0291 31.7198 35.4464 33.0686 34.4127 34.064C33.3791 35.0594 31.9783 35.6205 30.5165 35.6247H19.4838C18.022 35.6205 16.6213 35.0594 15.5876 34.064C14.5539 33.0686 13.9713 31.7198 13.9669 30.3121V19.688C13.9713 18.2803 14.5539 16.9315 15.5876 15.9361C16.6213 14.9407 18.022 14.3796 19.4838 14.3754H30.5165V14.3754ZM30.5165 12.2507H19.4838C15.2359 12.2507 11.7605 15.5974 11.7605 19.688V30.3121C11.7605 34.4027 15.2359 37.7494 19.4838 37.7494H30.5165C34.7644 37.7494 38.2398 34.4027 38.2398 30.3121V19.688C38.2398 15.5974 34.7644 12.2507 30.5165 12.2507V12.2507Z" fill="white"/>
<path d="M32.171 19.6881C31.8437 19.6881 31.5237 19.5946 31.2516 19.4195C30.9794 19.2444 30.7673 18.9955 30.642 18.7043C30.5168 18.4131 30.484 18.0926 30.5478 17.7835C30.6117 17.4743 30.7693 17.1904 31.0008 16.9675C31.2322 16.7446 31.5271 16.5928 31.8481 16.5314C32.1692 16.4699 32.5019 16.5014 32.8043 16.622C33.1067 16.7427 33.3652 16.9469 33.5471 17.209C33.7289 17.4711 33.826 17.7792 33.826 18.0944C33.8264 18.3038 33.7839 18.5112 33.7009 18.7048C33.6179 18.8984 33.4961 19.0742 33.3423 19.2223C33.1885 19.3704 33.0059 19.4877 32.8049 19.5677C32.6039 19.6476 32.3885 19.6885 32.171 19.6881V19.6881ZM24.9997 20.7501C25.8726 20.7501 26.7259 20.9994 27.4517 21.4664C28.1775 21.9334 28.7431 22.5971 29.0772 23.3737C29.4112 24.1503 29.4986 25.0048 29.3283 25.8292C29.158 26.6536 28.7377 27.4109 28.1205 28.0053C27.5032 28.5996 26.7169 29.0044 25.8607 29.1684C25.0046 29.3324 24.1172 29.2482 23.3108 28.9265C22.5043 28.6049 21.815 28.0601 21.3301 27.3612C20.8451 26.6623 20.5863 25.8406 20.5863 25.0001C20.5876 23.8733 21.0529 22.793 21.8803 21.9962C22.7077 21.1995 23.8296 20.7513 24.9997 20.7501V20.7501ZM24.9997 18.6254C23.6904 18.6254 22.4106 18.9993 21.3219 19.6998C20.2333 20.4002 19.3848 21.3958 18.8838 22.5606C18.3828 23.7254 18.2517 25.0072 18.5071 26.2437C18.7625 27.4803 19.393 28.6161 20.3188 29.5076C21.2446 30.3992 22.4241 31.0063 23.7083 31.2523C24.9924 31.4982 26.3234 31.372 27.533 30.8895C28.7426 30.407 29.7765 29.59 30.5039 28.5417C31.2313 27.4934 31.6196 26.2609 31.6196 25.0001C31.6196 23.3094 30.9221 21.688 29.6806 20.4925C28.4392 19.297 26.7554 18.6254 24.9997 18.6254V18.6254Z" fill="white"/>
</svg>
