<svg width="50" height="50" viewBox="0 0 50 50" fill="none" xmlns="http://www.w3.org/2000/svg">
<rect width="50" height="50" rx="25" fill="#40DDB6"/>
<path d="M37.767 17.2068C36.8092 17.6229 35.7958 17.8971 34.7589 18.0206C35.8487 17.3825 36.6682 16.3687 37.0638 15.1694C36.0335 15.7719 34.9081 16.1946 33.7359 16.4195C33.2423 15.9022 32.6487 15.4906 31.9911 15.2099C31.3335 14.9292 30.6257 14.7851 29.9107 14.7864C27.0158 14.7864 24.6731 17.0951 24.6731 19.941C24.671 20.3368 24.7164 20.7315 24.8082 21.1166C22.7323 21.0193 20.6997 20.4897 18.8402 19.5618C16.9808 18.6339 15.3355 17.3281 14.0096 15.7279C13.5444 16.5121 13.2984 17.4068 13.2973 18.3185C13.2973 20.1059 14.2298 21.6858 15.6379 22.6114C14.8036 22.5916 13.9865 22.3708 13.2558 21.9677V22.0316C13.2558 24.5317 15.0644 26.6117 17.4582 27.0851C17.0081 27.2051 16.5442 27.2659 16.0783 27.266C15.7478 27.2665 15.418 27.2345 15.0937 27.1702C15.7592 29.2182 17.696 30.7077 19.9903 30.7502C18.126 32.187 15.8372 32.9635 13.4835 32.9578C13.0657 32.9572 12.6483 32.9323 12.2334 32.8834C14.6278 34.4123 17.4111 35.221 20.252 35.2133C29.8995 35.2133 35.1701 27.3564 35.1701 20.5421C35.1701 20.3187 35.1642 20.0953 35.1536 19.8772C36.1766 19.1495 37.0616 18.2452 37.767 17.2068Z" fill="white"/>
</svg>
