<svg width="50" height="50" viewBox="0 0 50 50" fill="none" xmlns="http://www.w3.org/2000/svg">
<rect width="50" height="50" rx="25" fill="#40DDB6"/>
<path fill-rule="evenodd" clip-rule="evenodd" d="M36.9154 25.0689C36.9154 18.7323 31.5799 13.5945 24.9997 13.5945C18.4195 13.5945 13.084 18.7323 13.084 25.0689C13.084 30.7958 17.4407 35.5428 23.1379 36.4044V28.3867H20.1116V25.0689H23.1379V22.5409C23.1379 19.6657 24.9172 18.0762 27.6387 18.0762C28.9425 18.0762 30.3064 18.3005 30.3064 18.3005V21.1245H28.8031C27.3238 21.1245 26.861 22.0087 26.861 22.9174V25.0689H30.1655L29.6378 28.3867H26.8615V36.4055C32.5587 35.5444 36.9154 30.7973 36.9154 25.0689Z" fill="white"/>
</svg>
