<svg width="10" height="6" viewBox="0 0 10 6" fill="none" xmlns="http://www.w3.org/2000/svg">
<path fill-rule="evenodd" clip-rule="evenodd" d="M1.19869 0.599992C1.45693 0.403104 1.82588 0.452836 2.02277 0.711072L4.9567 4.55918C5.02975 4.60754 5.13639 4.60754 5.20944 4.55918L8.14337 0.711073C8.34026 0.452836 8.70921 0.403104 8.96745 0.599992C9.22568 0.796881 9.27542 1.16583 9.07853 1.42407L6.13447 5.28545C6.10012 5.33052 6.04812 5.39288 5.97611 5.45255C5.46302 5.8777 4.70313 5.8777 4.19003 5.45255C4.11802 5.39288 4.06602 5.33052 4.03167 5.28545L1.08761 1.42407C0.890725 1.16583 0.940458 0.796881 1.19869 0.599992Z" fill="white"/>
</svg>
